<svg id="svg" xmlns="http://www.w3.org/2000/svg" xmlns:xlink="http://www.w3.org/1999/xlink" width="400" height="400" viewBox="0, 0, 400,400"><g id="svgg"><path id="path0" d="M126.724 30.867 C 75.183 47.677,75.289 47.636,72.272 52.193 C 68.083 58.524,67.788 57.189,85.383 111.387 C 104.467 170.170,103.540 168.110,111.921 170.367 C 116.500 171.600,116.665 171.558,150.679 160.501 C 167.510 155.029,181.471 150.742,181.703 150.974 C 181.934 151.205,176.829 185.798,170.357 227.846 C 163.885 269.894,158.591 305.385,158.592 306.715 C 158.596 311.666,154.512 310.829,251.972 325.858 C 346.971 340.508,345.234 340.313,346.893 336.539 C 347.921 334.200,385.156 92.116,385.156 87.769 C 385.156 82.511,388.581 83.228,294.531 68.797 C 246.621 61.446,206.706 55.276,205.831 55.086 C 204.516 54.801,203.385 52.053,199.328 39.285 C 189.602 8.677,193.407 9.118,126.724 30.867 M191.485 53.599 C 196.060 67.733,203.150 89.587,207.240 102.164 C 214.258 123.743,214.605 125.119,213.393 126.576 C 211.856 128.425,116.448 159.642,114.555 158.915 C 113.006 158.321,113.459 159.616,96.049 105.950 C 82.342 63.696,81.227 59.843,82.379 58.684 C 84.782 56.264,179.860 25.860,181.622 26.948 C 182.757 27.648,185.375 34.723,191.485 53.599 M157.145 50.836 C 143.732 56.208,144.725 75.953,158.595 79.688 C 171.990 83.295,182.524 68.069,174.755 56.330 C 171.323 51.144,162.921 48.522,157.145 50.836 M164.688 62.656 C 167.339 65.308,164.221 69.726,160.938 67.969 C 158.180 66.493,159.374 61.719,162.500 61.719 C 163.188 61.719,164.172 62.141,164.688 62.656 M115.625 64.199 C 99.136 68.885,102.647 93.750,119.798 93.750 C 137.621 93.750,141.012 68.837,123.828 64.144 C 120.184 63.148,119.303 63.154,115.625 64.199 M296.094 80.883 C 337.559 87.238,371.781 92.694,372.143 93.009 C 372.882 93.653,337.602 324.973,336.588 326.132 C 336.016 326.786,172.168 302.116,171.298 301.245 C 171.130 301.077,176.363 266.107,182.928 223.534 L 194.863 146.128 198.345 144.941 C 200.261 144.288,201.917 143.845,202.027 143.954 C 202.137 144.064,197.162 177.022,190.971 217.194 C 178.347 299.114,179.230 292.233,181.055 294.474 C 182.368 296.087,317.655 317.969,326.310 317.969 C 331.515 317.969,330.307 324.025,347.885 209.754 C 365.849 92.968,364.714 101.650,362.305 99.446 C 360.367 97.675,218.685 75.299,215.827 76.313 C 215.071 76.581,213.901 77.271,213.227 77.847 C 212.002 78.892,211.458 77.734,208.910 68.660 C 208.589 67.517,209.129 67.489,214.629 68.364 C 217.970 68.895,254.629 74.529,296.094 80.883 M123.307 78.451 C 124.030 82.101,118.573 83.430,117.004 79.986 C 116.180 78.178,116.285 77.769,117.914 76.450 C 119.978 74.778,122.785 75.820,123.307 78.451 M351.116 108.668 C 351.571 109.123,321.587 304.455,320.967 305.075 C 320.617 305.425,192.816 286.132,192.486 285.679 C 192.432 285.606,197.435 252.852,203.602 212.891 C 209.769 172.930,214.822 140.154,214.830 140.055 C 214.837 139.956,216.230 139.168,217.923 138.304 C 221.857 136.298,224.700 132.559,225.706 128.070 C 226.623 123.980,226.532 123.464,222.951 112.429 L 220.266 104.154 221.458 96.804 C 222.114 92.761,222.651 89.256,222.653 89.016 C 222.657 88.521,350.531 108.083,351.116 108.668 M170.463 92.461 C 161.515 95.703,157.920 108.067,163.782 115.437 C 170.417 123.779,182.252 123.825,188.258 115.532 C 197.128 103.288,184.777 87.275,170.463 92.461 M178.259 104.418 C 180.098 106.082,180.063 107.230,178.122 108.987 C 174.943 111.864,170.559 107.097,173.594 104.062 C 174.893 102.763,176.572 102.891,178.259 104.418 M127.344 106.344 C 112.393 112.288,117.326 135.428,133.541 135.413 C 149.366 135.398,154.536 114.132,140.461 106.948 C 137.298 105.334,130.654 105.028,127.344 106.344 M135.929 118.349 C 137.185 119.862,136.340 123.151,134.579 123.608 C 132.652 124.107,131.364 123.548,130.432 121.807 C 128.636 118.450,133.483 115.401,135.929 118.349 M270.667 129.883 L 260.410 140.234 255.144 175.000 C 248.814 216.784,249.561 213.280,246.986 213.286 C 232.731 213.316,225.896 231.007,236.645 240.052 C 238.916 241.963,245.570 244.531,248.251 244.531 C 249.023 244.531,249.220 245.161,248.925 246.680 C 248.696 247.861,248.092 251.553,247.584 254.883 C 246.953 259.021,246.324 260.938,245.596 260.938 C 241.937 260.938,239.988 268.005,242.916 270.656 C 244.349 271.952,269.472 276.546,275.195 276.558 C 280.019 276.568,282.494 269.569,278.683 266.695 L 276.898 265.348 278.097 257.621 L 279.297 249.895 285.606 249.752 C 303.867 249.339,308.449 226.137,291.441 220.207 C 288.484 219.177,288.133 223.551,294.528 181.771 L 299.994 146.064 293.729 133.553 C 287.411 120.935,286.258 119.531,282.208 119.531 C 281.501 119.531,276.308 124.189,270.667 129.883 M284.732 142.119 L 287.746 148.301 282.408 183.330 C 279.472 202.596,276.998 218.464,276.910 218.591 C 276.713 218.876,261.511 216.459,261.134 216.082 C 260.985 215.933,263.231 200.212,266.124 181.148 L 271.386 146.484 276.008 141.211 C 281.682 134.736,281.103 134.676,284.732 142.119 M324.967 168.620 C 321.702 171.263,319.035 192.411,321.680 194.682 C 324.985 197.521,329.736 196.732,331.129 193.113 C 332.038 190.751,334.375 176.099,334.375 172.761 C 334.375 168.168,328.641 165.644,324.967 168.620 M116.406 194.836 C 99.677 198.556,89.231 217.098,95.143 232.578 C 96.662 236.555,96.664 236.667,95.222 237.972 C 93.899 239.170,93.750 240.547,93.750 251.563 C 93.750 265.050,94.202 266.406,98.694 266.406 C 101.274 266.406,101.291 266.812,99.155 277.879 C 97.302 287.479,91.991 306.294,88.050 317.216 C 85.748 323.597,85.307 326.000,84.829 334.766 C 84.173 346.811,82.649 355.659,81.146 356.141 C 73.017 358.748,68.021 380.211,74.531 384.558 C 76.727 386.025,170.790 385.224,172.145 383.728 C 175.861 379.621,173.201 362.267,168.327 358.829 C 163.486 355.413,163.243 355.063,162.463 350.391 C 162.032 347.813,161.381 340.957,161.015 335.156 C 160.410 325.558,160.026 323.673,156.752 314.203 C 151.158 298.024,147.688 284.657,145.004 268.945 C 144.603 266.598,144.731 266.405,146.699 266.394 C 151.479 266.367,152.344 264.096,152.344 251.563 C 152.344 241.831,151.777 238.693,149.785 237.393 C 149.315 237.087,149.583 235.435,150.481 233.096 C 158.550 212.079,138.767 189.865,116.406 194.836 M130.305 207.741 C 138.932 212.179,142.660 222.713,138.486 230.859 C 135.491 236.705,135.251 236.789,122.213 236.545 L 110.611 236.328 108.297 232.582 C 99.267 217.970,115.208 199.976,130.305 207.741 M258.594 227.597 C 263.965 228.700,272.754 230.029,278.125 230.551 C 289.677 231.674,293.031 233.882,288.675 237.497 C 285.201 240.381,244.508 233.307,243.336 229.615 C 242.664 227.498,245.107 224.761,247.244 225.238 C 248.115 225.432,253.223 226.494,258.594 227.597 M140.625 251.563 L 140.625 255.469 123.047 255.469 L 105.469 255.469 105.469 251.563 L 105.469 247.656 123.047 247.656 L 140.625 247.656 140.625 251.563 M266.903 248.823 C 267.149 249.465,266.903 253.001,266.355 256.682 L 265.360 263.374 262.172 262.848 C 260.419 262.558,258.868 262.216,258.725 262.087 C 258.445 261.832,260.028 250.230,260.562 248.633 C 261.033 247.223,266.350 247.383,266.903 248.823 M133.179 269.727 C 135.250 283.379,139.485 300.543,144.103 314.004 C 145.198 317.195,146.094 320.095,146.094 320.449 C 146.094 320.804,135.589 321.094,122.749 321.094 L 99.404 321.094 102.482 311.523 C 106.514 298.988,110.730 281.796,111.870 273.242 L 112.781 266.406 122.728 266.406 L 132.675 266.406 133.179 269.727 M149.535 340.820 C 149.835 345.225,150.367 350.322,150.717 352.148 L 151.353 355.469 122.855 355.469 L 94.357 355.469 94.839 352.899 C 95.281 350.543,96.808 336.070,96.855 333.789 C 96.871 333.028,102.618 332.813,122.932 332.813 L 148.989 332.813 149.535 340.820 M159.982 367.622 C 161.205 368.479,161.719 369.634,161.719 371.529 L 161.719 374.219 122.656 374.219 L 83.594 374.219 83.594 372.024 C 83.594 369.654,84.848 367.617,86.719 366.948 C 89.974 365.785,158.256 366.413,159.982 367.622 " stroke="none" fill="#000000" fill-rule="evenodd"></path></g></svg>